<svg height="512" width="512" aria-label="Logo" stroke-linejoin="round" clip-rule="evenodd" stroke-miterlimit="1.414" fill-rule="evenodd" xmlns="http://www.w3.org/2000/svg"><path fill="#ff4088" d="M413.809 310.316V188.982a44.505 44.505 0 0 0-21.96-38.37c-29.195-17.152-80.774-47.457-112.363-66.018a52.232 52.232 0 0 0-53.871.575c-27.958 17.24-71.577 44.135-99.734 61.5a57.494 57.494 0 0 0-27.322 48.94v124.23a55.684 55.684 0 0 0 27.58 48.072l103.932 60.75a45.255 45.255 0 0 0 44.86.467c30.35-16.907 84.102-46.84 115.067-64.089a46.356 46.356 0 0 0 23.79-40.492v-14.232z"/><path fill="#c9177e" d="M253.167 64h.275l.245.003h1.403l.246.01h.03l.244.01h.027l.248.01h.02l.248.01h.03l.238.01h.03l.238.01h.02l.248.01h.03l.248.02h.03l.238.019h.02l.238.02h.03l.248.02h.02l.238.02h.03l.248.02h.03l.248.02h.03l.248.019h.03l.238.02h.03l.238.02h.03l.248.02h.03l.247.03h.03l.248.03h.02l.238.029h.03l.238.03h.03l.248.03h.03l.248.03h.02l.238.029h.03l.248.03h.03l.238.04.03.01.248.04h.03l.238.039h.02l.248.04h.03l.238.04h.03l.238.039h.02l.248.04h.03l.238.04.03.01.238.039.03.01.238.05h.03l.238.04h.03l.238.049h.03l.248.05h.02l.238.049h.03l.238.05h.02l.247.05.03.01.248.049h.02l.238.06.03.01.238.059h.03l.248.06.02.01.238.049.03.01.238.05.02.01.238.059h.03l.238.06.03.01.238.059.02.01.248.06.02.01.238.059.03.01.238.06h.02l.238.069h.03l.248.06.03.01.238.059h.03l.238.07.03.01.238.069.03.01.238.07.03.01.238.069.02.01.238.069.03.01.238.07.03.01.238.069.03.01.238.08.02.009.238.08h.03l.238.079h.03l.238.08.03.01.238.079.03.01.238.079.02.01.238.08.03.01.238.079.02.01.238.079.02.01.228.08.03.01.228.078.03.01.228.09.03.01.238.089.03.01.228.09.02.01.238.079.02.01.238.089.03.01.238.089.03.01.228.09.03.01.228.098.02.01.238.09.03.01.228.099.03.01.238.099.03.01.238.1.02.01.238.098.02.01.228.1.02.01.229.099.02.01.238.099.02.01.228.1.03.009.228.1.03.01.228.098.02.01.228.11.03.01.228.109.03.01.228.109.02.01.228.109.02.01.228.109.03.01.228.109.03.01.228.11.03.009.228.11.02.01.229.118.02.02.228.11.02.01.218.118.03.01.228.11.02.01.228.118.03.01.218.12.03.02.228.118.03.01.228.12.02.01.218.118.03.02.228.12.02.02.219.128.02.02.218.13.03.009.218.129.02.01.218.129.02.02.218.129.03.02.209.129h.02l112.446 66.069.189.109.02.02.188.109.03.01.179.119.02.02.178.109.02.02.179.109.02.01.178.109.02.01.179.109.02.01.178.11.03.01.179.118.02.01.178.12.03.01.179.108.02.01.178.12.02.02.179.118.02.02.168.11.03.01.179.118.02.01.178.12.02.01.169.118.02.01.168.12.02.01.169.118.02.02.168.12.02.01.169.128.03.02.169.12.02.01.168.118.02.01.169.12.02.02.168.118.02.01.169.12.02.02.168.118.02.02.169.129.03.02.158.129.03.02.169.129.03.01.168.129.02.02.169.129.02.02.159.128.03.02.168.14.03.029.318.258.04.03.317.268.04.03.327.268.04.03.327.267.04.03.318.268.04.04.317.268.04.03.307.277.04.03.308.278.04.03.307.288.04.03.297.277.04.03.308.288.04.04.297.287.04.04.298.288.04.04.287.287.04.04.288.298.04.04.287.297.03.04.288.298.04.04.277.297.04.04.278.298.04.04.278.297.04.04.277.307.04.04.268.318.03.04.277.307.04.04.268.317.04.04.268.318.03.04.268.317.04.04.257.317.03.04.258.318.04.04.258.327.03.04.248.327.03.04.248.327.03.04.248.327.03.05.247.337.03.04.248.328.03.05.238.337.03.04.238.337.03.04.238.337.03.05.228.337.03.05.228.347.03.05.218.337.03.04.219.337.03.04.228.347.03.04.218.347.03.05.208.347.03.05.218.347.03.05.208.347.03.05.208.357.03.04.199.357.03.05.198.357.03.05.198.357.03.05.198.357.02.05.199.367.02.05.188.367.02.05.189.367.03.04.178.376.02.05.188.367.02.05.179.367.03.05.168.377.02.05.169.377.02.05.169.376.02.05.168.377.02.05.159.377.02.05.158.377.02.05.15.386.019.05.149.377.02.05.149.387.02.05.148.386.02.05.15.387.019.05.139.387.02.05.129.387.02.05.129.386.02.05.128.387.02.05.13.397.01.05.118.386.02.05.12.397.01.05.118.396.02.05.12.397.02.05.108.397.02.05.11.396.01.05.099.397.02.06.109.406.01.05.099.407.02.05.089.406.02.05.099.407.01.06.09.406.01.05.088.407.01.05.08.406.01.05.08.407.009.05.08.407.01.05.069.416.01.05.07.407.01.06.069.416.01.06.06.416.009.06.06.407v.04l.03.218v.02l.02.208v.03l.029.208v.02l.03.209v.03l.03.208.01.03.03.208v.03l.02.208.009.02.02.208.01.03.02.209v.03l.02.208.01.03.02.208.01.03.019.208v.03l.02.208v.03l.02.209v.03l.02.208v.03l.02.208v.03l.01.208v.03l.01.218v.03l.02.218v.02l.009.209v.03l.01.208v.03l.01.208v.03l.01.208v.03l.01.218v.03l.01.209v.03l.01.208v.02l.01.208v138.55l-.01.227v.288l-.01.228v.03l-.01.219v.02l-.01.228v.03l-.01.218v.02l-.01.218v.03l-.01.218-.01.03-.01.218v.03l-.01.218v.02l-.01.229v.03l-.02.228v.02l-.02.228v.03l-.02.218v.03l-.01.218v.03l-.019.218v.03l-.02.218v.03l-.02.218v.03l-.02.218-.01.02-.02.228-.01.03-.02.219v.03l-.019.218-.01.03-.03.218v.03l-.03.218v.02l-.03.218v.03l-.029.218-.01.03-.03.228-.01.03-.03.218-.01.03-.03.219v.03l-.029.218v.03l-.03.218-.01.03-.03.218-.01.03-.039.218v.02l-.03.218v.02l-.04.218-.01.03-.03.219-.009.03-.03.218v.02l-.04.218v.02l-.04.218v.02l-.039.218v.03l-.04.208-.01.03-.04.209-.01.03-.039.218-.01.03-.05.218v.02l-.049.218v.02l-.04.208v.03l-.05.218v.02l-.039.219-.01.02-.05.208v.02l-.05.208v.03l-.049.208-.01.03-.05.209-.01.03-.049.208-.01.02-.05.208-.01.02-.049.208-.01.03-.06.208-.01.03-.049.209-.01.03-.06.208v.03l-.06.218-.009.03-.06.208v.03l-.06.208-.009.03-.06.209-.01.03-.059.218-.01.02-.06.208-.01.02-.059.208-.01.03-.07.208-.01.03-.059.209-.01.02-.06.208-.01.03-.059.208-.01.02-.07.208-.01.03-.069.209-.01.03-.069.208-.01.03-.07.208-.01.03-.069.208-.01.02-.07.208-.01.03-.069.209-.01.03-.069.208-.01.02-.07.208-.01.03-.069.208-.01.03-.08.198-.009.03-.07.199-.01.03-.069.198-.01.03-.07.208-.01.03-.079.208-.01.03-.079.199-.01.03-.08.198-.01.03-.079.198-.01.03-.079.198-.01.03-.08.199-.01.03-.079.198-.01.02-.089.198-.01.03-.089.209-.01.03-.08.198-.01.03-.089.198-.01.03-.089.198-.01.03-.09.199-.009.02-.09.198-.01.03-.089.198-.01.02-.089.199-.01.02-.09.198-.009.02-.09.198-.01.02-.099.199-.01.02-.099.188-.01.03-.089.198-.01.02-.1.189-.009.03-.09.198-.01.02-.099.198-.01.03-.099.199-.01.02-.099.188-.01.02-.099.198-.01.03-.1.199-.01.03-.098.198-.02.03-.1.188-.01.02-.099.199-.01.03-.099.198-.01.03-.109.188-.02.02-.109.189-.01.02-.109.188-.01.02-.11.188-.01.02-.108.189-.01.02-.11.188-.01.03-.108.189-.01.02-.11.188-.01.03-.109.188-.02.02-.109.189-.02.02-.109.188-.01.02-.109.189-.01.03-.119.188-.01.02-.109.179-.01.03-.109.178-.02.02-.119.188-.01.03-.119.179-.02.02-.119.178-.01.02-.119.189-.02.03-.119.178-.02.02-.119.179-.01.02-.119.188-.01.02-.119.179-.02.02-.129.178-.01.02-.119.178-.01.02-.129.179-.01.02-.119.178-.02.02-.119.179-.02.02-.129.178-.02.02-.118.179-.01.02-.13.178-.02.03-.118.179-.02.02-.13.178-.02.02-.128.179-.02.02-.129.178-.02.02-.129.179-.01.02-.129.168-.02.02-.129.169-.01.02-.139.169-.02.02-.128.168-.01.02-.13.179-.02.02-.138.178-.02.02-.139.169-.02.02-.139.168-.01.02-.139.169-.02.02-.138.168-.02.02-.14.169-.019.02-.139.169-.02.02-.139.168-.01.02-.139.169-.02.02-.148.168-.02.02-.14.169-.019.02-.139.168-.02.02-.139.169-.02.02-.139.169-.02.02-.138.158-.02.02-.15.169-.019.02-.139.168-.02.02-.149.169-.02.02-.138.168-.02.02-.15.16-.019.019-.149.159-.02.02-.149.158-.02.02-.148.159-.02.02-.149.159-.02.02-.149.158-.02.02-.148.159-.02.02-.15.159-.019.02-.159.158-.02.02-.149.159-.02.02-.148.149-.02.02-.159.158-.03.02-.158.159-.02.02-.16.149-.019.02-.159.158-.02.02-.158.149-.02.02-.159.149-.02.02-.159.148-.02.02-.158.15-.02.019-.159.149-.02.02-.159.149-.02.02-.168.148-.02.01-.159.15-.02.019-.168.149-.02.02-.169.149-.02.01-.169.148-.02.02-.168.14-.03.019-.169.139-.02.02-.168.149-.02.02-.169.148-.02.02-.168.15-.02.019-.169.139-.02.02-.178.139-.02.01-.169.139-.02.02-.169.138-.03.02-.168.14-.02.019-.169.139-.02.02-.168.139-.02.02-.179.139-.02.02-.168.128-.02.02-.179.14-.02.02-.178.138-.02.02-.179.139-.02.02-.178.139-.02.01-.179.129-.02.01-.178.128-.02.01-.179.13-.03.01-.178.128-.02.02-.179.13-.02.02-.178.128-.02.02-.179.129-.03.02-.178.129-.02.01-.188.129-.03.01-.189.129-.02.02-.188.129-.02.02-.189.119-.02.02-.188.128-.02.02-.179.13-.03.02-.188.118-.02.01-.188.12-.03.01-.189.118-.02.02-.188.12-.02.02-.188.118-.02.01-.189.12-.03.01-.188.118-.02.02-.189.12-.03.01-.188.118-.03.02-.188.12-.03.019-.199.12-.02.019-.188.11-.03.009-.188.11-.02.02-.199.118-.03.02-.198.11-.02.019-.188.11-.03.01-.199.108-.03.01-.198.11-.02.01-.188.108-.01.01-115.058 64.114h-.01l-.178.11-.03.01-.188.108-.03.02-.189.1-.03.01-.188.099-.02.01-.189.099-.03.01-.188.099-.03.01-.188.1-.03.01-.189.098-.02.01-.188.1-.02.01-.188.089-.02.01-.199.099-.02.02-.188.099-.02.01-.189.09-.02.01-.188.089-.02.01-.188.099-.02.01-.199.089-.02.01-.188.09-.02.01-.199.088-.02.01-.188.09-.02.01-.188.089-.03.02-.199.09-.02.009-.198.08-.02.01-.198.089-.02.02-.199.089-.03.01-.188.08-.02.01-.198.088-.02.01-.199.08-.02.01-.198.08-.02.009-.198.08-.03.01-.199.079-.03.01-.198.079-.03.01-.188.08-.02.01-.199.069-.02.01-.198.08-.03.009-.198.08-.03.01-.199.079-.03.01-.198.07-.03.009-.198.08-.03.01-.198.069-.02.01-.199.07-.03.01-.198.069-.03.01-.198.069-.03.01-.199.07-.02.01-.198.069-.198.07-.03.01-.209.059-.03.01-.198.06-.02.01-.198.069-.02.01-.208.06-.03.009-.199.06-.03.01-.198.06-.03.009-.208.07-.04.01-.397.118-.05.02-.406.12-.05.01-.407.118-.05.01-.406.11-.05.02-.407.109-.05.01-.407.109-.06.01-.406.099-.05.01-.407.099-.06.01-.406.1-.05.01-.407.088-.05.01-.416.09-.06.01-.416.089-.05.01-.417.08-.05.01-.406.069-.05.01-.407.079-.05.01-.416.07-.05.01-.417.069-.05.01-.416.06-.05.01-.417.059-.05.01-.416.06-.05.01-.417.059-.06.01-.416.05-.05.01-.417.049-.05.01-.416.05-.417.039h-.05l-.416.03-.05.01-.417.03h-.05l-.416.03h-.05l-.417.029-.06.01-.416.03h-.05l-.417.02h-.05l-.416.02h-.06l-.416.01h-.05l-.417.01h-.05l-.416.01h-1.47l-.416-.01-.417-.01h-.06l-.416-.01h-.01l-.416-.02-.05-.01-.416-.02h-.05l-.417-.02-.05-.01-.416-.02h-.05l-.417-.03-.05-.01-.416-.04-.06-.01-.417-.039-.06-.01-.416-.04-.05-.01-.417-.04h-.05l-.416-.039-.05-.01-.416-.05h-.06l-.417-.049-.06-.01-.416-.06-.05-.01-.417-.059-.05-.01-.416-.06-.05-.01-.417-.059-.05-.01-.406-.07h-.03l-.417-.079-.053-.01-.407-.079-.05-.01-.407-.08-.05-.01-.406-.079-.06-.01-.413-.079-.05-.01-.406-.09-.06-.019-.407-.09-.05-.01-.406-.099-.056-.02-.407-.099-.05-.02-.406-.109-.05-.01-.407-.109-.05-.02-.406-.109-.05-.02-.407-.109-.05-.02-.406-.119-.06-.02-.407-.119-.05-.02-.406-.119-.05-.02-.407-.119-.05-.01-.395-.129-.04-.01-.208-.069h-.027l-.198-.06-.03-.01-.198-.069-.03-.01-.199-.07-.03-.01-.198-.069-.03-.01-.198-.07-.03-.009-.198-.07-.02-.01-.199-.069-.02-.01-.198-.07-.02-.01-.198-.079-.03-.01-.199-.079-.03-.01-.198-.08-.02-.01-.198-.079-.03-.01-.199-.079-.02-.01-.198-.08-.03-.01-.198-.079-.02-.01-.199-.079-.02-.01-.198-.08-.03-.01-.198-.078-.03-.01-.198-.08-.03-.01-.199-.08-.03-.009-.198-.08-.02-.01-.198-.089-.03-.01-.189-.089-.02-.01-.198-.09-.02-.01-.198-.088-.02-.01-.199-.08-.03-.01-.188-.089-.03-.01-.198-.09-.03-.01-.189-.088-.02-.02-.188-.09-.02-.01-.188-.089-.02-.01-.199-.09-.02-.019-.198-.1-.02-.02-.189-.088-.03-.01-.198-.09-.02-.02-.188-.099-.03-.01-.199-.099-.02-.01-.188-.1-.03-.009-.188-.1-.02-.01-.189-.098-.03-.02-.188-.1-.02-.01-.188-.099-.02-.01-.189-.099-.03-.02-.188-.099-.02-.01-.189-.11-.03-.019-.188-.1-.03-.01-.188-.098-.03-.01-.189-.1-.03-.01-.188-.109-.03-.01-.178-.109-.03-.01-.179-.109-.01-.01-104.01-60.71-.01-.01-.22-.128-.019-.01-.218-.13-.03-.01-.228-.128-.03-.01-.219-.139-.02-.01-.218-.139-.02-.02-.218-.139-.02-.02-.218-.138-.03-.01-.218-.13-.03-.02-.218-.138-.02-.02-.219-.139h.051l-.218-.139-.03-.02-.218-.139-.02-.02-.219-.139-.027-.02-.219-.148-.03-.02-.218-.149-.02-.02-.218-.139-.02-.02-.218-.148-.02-.02-.218-.15-.02-.019-.209-.149-.03-.02-.213-.149-.02-.02-.208-.148-.025-.02-.208-.15-.027-.019-.209-.149-.02-.01-.208-.149-.02-.02-.205-.148-.02-.02-.204-.149-.03-.01-.209-.149-.02-.02-.208-.158-.02-.02-.208-.15-.026-.019-.208-.159-.026-.02-.199-.158-.02-.02-.198-.16-.02-.01-.198-.158-.02-.02-.199-.158-.02-.02-.198-.16-.02-.019-.198-.159-.02-.02-.199-.158-.02-.02-.198-.16-.02-.019-.198-.169-.02-.01-.199-.158-.02-.02-.192-.159-.02-.02-.198-.169-.02-.02-.199-.158-.02-.02-.198-.169-.02-.01-.195-.159-.02-.02-.188-.158-.02-.02-.188-.169-.02-.02-.189-.168-.02-.02-.188-.169-.02-.02-.189-.168-.02-.02-.188-.169-.02-.02-.188-.179-.02-.01-.189-.168-.03-.02-.183-.179-.02-.02-.189-.168-.02-.02-.184-.179-.02-.02-.179-.178-.02-.02-.178-.179-.02-.02-.189-.178-.02-.02-.188-.179-.02-.01-.178-.178-.02-.02-.179-.179-.02-.02-.178-.178-.02-.02-.179-.179-.02-.02-.178-.178-.02-.02-.179-.179-.02-.02-.168-.178-.02-.02-.179-.179-.02-.02-.178-.188-.02-.02-.169-.189-.02-.02-.169-.188-.02-.02-.178-.188-.02-.02-.169-.189-.02-.02-.168-.188-.02-.02-.169-.189-.02-.02-.168-.188-.02-.02-.169-.188-.01-.02-.159-.189-.02-.02-.168-.188-.02-.02-.179-.199-.02-.02-.168-.188-.02-.02-.169-.198-.02-.02-.159-.189-.01-.02-.158-.188-.02-.02-.159-.199-.02-.02-.168-.198-.02-.02-.16-.188-.019-.02-.169-.189-.02-.02-.158-.188-.02-.02-.159-.199-.02-.02-.159-.198-.02-.02-.158-.198-.02-.02-.159-.199-.02-.02-.159-.198-.01-.02-.148-.198-.02-.02-.15-.199-.009-.02-.149-.198-.02-.02-.149-.208-.02-.02-.148-.199-.02-.02-.149-.198-.01-.02-.149-.208-.01-.02-.149-.208-.01-.02-.148-.199-.01-.02-.15-.198-.02-.02-.148-.208-.02-.02-.149-.209-.02-.03-.138-.208-.02-.02-.14-.208-.02-.02-.138-.208-.02-.02-.139-.209-.01-.02-.139-.208-.02-.03-.138-.208-.02-.02-.14-.208-.02-.02-.138-.209-.02-.02-.139-.208-.02-.02-.129-.208-.01-.02-.129-.208-.02-.03-.138-.209-.02-.03-.14-.208-.01-.02-.138-.218-.01-.03-.13-.208-.019-.02-.129-.209-.02-.02-.129-.218-.02-.03-.129-.208-.01-.02-.129-.218-.01-.02-.129-.208-.02-.03-.128-.219-.02-.03-.13-.218-.02-.03-.118-.218-.02-.02-.13-.218-.01-.02-.118-.218-.01-.02-.12-.218-.01-.03-.118-.218-.02-.03-.12-.219-.01-.03-.118-.228-.01-.02-.12-.218-.01-.03-.118-.218-.01-.03-.12-.218-.01-.03-.108-.228-.01-.02-.12-.228-.01-.03-.118-.228-.02-.02-.11-.228-.01-.02-.109-.219-.01-.03-.109-.228v.01l-.109-.228-.02-.03-.109-.228-.01-.03-.109-.218-.01-.03-.109-.228-.01-.02-.11-.228-.009-.02-.1-.228-.01-.02-.108-.228-.01-.02-.11-.229-.01-.02-.109-.228-.01-.03-.099-.228-.01-.02-.109-.228-.01-.03-.109-.228-.01-.02-.1-.228-.009-.02-.1-.228-.01-.03-.098-.228-.01-.02-.09-.228-.01-.02-.099-.228-.01-.03-.09-.238-.009-.02-.1-.229-.01-.03-.089-.218-.01-.03-.099-.238-.01-.02-.089-.238-.01-.03-.09-.238-.01-.02-.088-.238-.01-.03-.09-.238-.01-.02-.089-.238-.01-.02-.08-.238-.01-.03-.089-.238-.01-.02-.079-.238-.01-.03-.08-.238-.01-.03-.088-.238-.01-.03-.08-.238-.01-.02-.079-.238-.01-.02-.08-.238-.01-.03-.079-.238-.01-.03-.079-.238-.01-.03-.08-.238-.01-.03-.079-.238-.009-.028-.07-.239-.009-.02-.08-.248-.01-.03-.069-.247-.01-.03-.07-.238-.01-.03-.069-.238-.01-.03-.069-.248-.01-.03-.07-.248-.01-.02-.069-.248-.01-.01-.07-.248-.01-.02-.059-.238-.01-.02-.06-.238v-.02l-.069-.248v-.03l-.06-.238-.01-.03-.059-.238-.01-.03-.06-.248h.01l-.059-.248-.01-.02-.06-.248-.01-.02-.059-.248-.01-.02-.06-.248.01-.01-.059-.248-.01-.03-.06-.248-.01-.03-.049-.248-.01-.03-.06-.248-.01-.02-.049-.248-.01-.03-.05-.248-.01-.03-.049-.248-.05-.248v-.03l-.05-.257v-.03l-.049-.248-.01-.03-.06-.238v-.03l-.049-.268-.01-.03-.05-.258-.01-.03-.039-.248-.01-.03-.04-.248v-.03l-.04-.248v-.03l-.039-.247-.01-.03-.04-.248v.01l-.04-.249v-.02l-.04-.247v-.03l-.039-.248v-.03l-.04-.248v-.02l-.03-.258v-.03l-.029-.248v-.02l-.04-.258-.01-.03-.03-.248v-.03l-.03-.258-.01-.03-.029-.257v-.03l-.03-.258-.01-.03-.03-.258v-.03l-.03-.258-.01-.02-.029-.258-.02-.258v-.03l-.03-.258-.01-.03-.03-.258v-.03l-.019-.257-.01-.03-.02-.258v-.03l-.02-.258v-.03l-.02-.258-.02-.258v-.03l-.02-.258v-.03l-.019-.257v-.321l-.01-.258v-.03l-.01-.258v-.03l-.01-.258-.01-.03-.01-.258v-.277l-.01-.258v-.03l-.01-.258V195.583l.01-.248v-.318l.01-.258v-.913l.01-.258v-.02l.01-.258v-.03l.01-.258v-.03l.01-.258v-.02l.01-.258v-.03l.01-.257v-.03l.02-.268v-.03l.02-.258v-.02l.01-.258v-.03l.02-.258v-.03l.01-.257v-.03l.01-.258v-.03l.02-.258v-.03l.019-.258v-.03l.03-.258v-.03l.02-.258.01-.02.02-.257v-.02l.03-.258v-.02l.029-.258.01-.03.03-.258v-.03l.03-.258v-.02l.03-.258v-.02l.029-.258.01-.03.03-.257v-.03l.03-.248v-.03l.03-.258v-.03l.029-.258.01-.03.03-.248v-.03l.04-.258v-.03l.03-.257.009-.03.03-.248.01-.03.04-.258.01-.02.039-.258v-.02l.04-.258v-.02l.04-.248.01-.03.039-.248v-.03l.07-.258.01-.03.04-.248v-.03l.049-.247v-.02l.05-.248v-.02l.049-.258.01-.02.05-.248.01-.02.05-.248.009-.03.05-.248.01-.03.05-.248v-.03l.049-.248v-.02l.05-.248.01-.02.049-.248.01-.02.06-.248v-.03l.059-.248.01-.03.05-.248.01-.03.059-.247v-.03l.06-.248.01-.03.06-.248v-.03l.059-.248.01-.02.06-.248v-.02l.059-.248.01-.03.069-.248v-.02l.07-.248v-.02l.069-.248.01-.03.07-.248v-.03l.069-.248.01-.03.07-.238.01-.02.069-.248.01-.024.069-.249.01-.03.07-.242.01-.02.079-.247.01-.02.07-.239.01-.02.069-.24.01-.02.069-.247.01-.03.08-.241.01-.03.079-.238v-.02l.079-.238v-.03l.08-.238.01-.02.079-.238.01-.03.079-.238.01-.03.08-.238.01-.03.079-.238.01-.02.089-.238.01-.02.08-.238.01-.025.079-.238.01-.02.089-.239.01-.02.09-.238v-.02l.088-.238.01-.02.09-.238.01-.03.089-.238.01-.02.09-.238.01-.03.098-.228.01-.02.1-.238.01-.02.099-.238.01-.03.099-.238.01-.03.099-.238.01-.03.1-.238.01-.03.098-.238.01-.03.1-.238.01-.024.099-.229.01-.03.099-.228.01-.03.099-.238.01-.02.11-.238.01-.02.108-.228.01-.02.1-.228.01-.03.108-.228.01-.02.11-.228.01-.02.109-.228.01-.02.109-.228.01-.03.109-.228.01-.02.109-.229.01-.03.11-.228.009-.02.11-.228.01-.02.108-.228.01-.02.11-.228.01-.02.118-.218.01-.02.12-.228.02-.03.118-.228.01-.02.12-.228.01-.03.118-.219.01-.02.12-.218.01-.02.118-.218.01-.03.12-.218.02-.02.118-.218.01-.03.12-.218.02-.02.118-.219.01-.02.12-.218.02-.03.128-.218.01-.02.12-.218.01-.02.128-.218.01-.02.13-.218.01-.02.128-.219.02-.02.129-.218.01-.02.129-.218.02-.02.129-.218.01-.02.129-.218.02-.02.129-.219.01-.02.139-.218.02-.03.138-.218.01-.02.13-.208.02-.02.138-.208.02-.02.129-.219.01-.02.139-.208.01-.02.139-.208.02-.02.138-.218.02-.02.14-.209.01-.03.138-.208.01-.02.139-.208.01-.02.149-.208.02-.02.139-.209.02-.02.148-.208.01-.02.15-.208.009-.02.149-.208.01-.02.149-.209.02-.02.148-.208.01-.02.15-.208.019-.02.149-.199.01-.02.149-.208.02-.02.148-.198.02-.02.15-.199.019-.02.149-.198.02-.02.149-.198.01-.02.148-.199.02-.02.159-.198.02-.02.159-.198.02-.02.158-.199.02-.02.159-.198.02-.02.159-.198.02-.03.158-.199.01-.02.159-.198.02-.02.159-.198.02-.02.158-.189.02-.02.159-.198.02-.02.159-.198.02-.02.168-.189.02-.02.159-.198.02-.02.158-.189.02-.02.16-.198.019-.02.169-.198.01-.02.168-.189.02-.02.169-.188.02-.02.168-.188.02-.02.169-.189.01-.02.169-.188.02-.02.168-.189.02-.02.169-.188.01-.02.168-.189.02-.02.179-.188.01-.02.178-.188.02-.02.189-.179.02-.02.178-.188.02-.02.179-.189.02-.02.178-.178.02-.02.179-.179.02-.02.178-.178.02-.02.189-.179.02-.02.178-.178.02-.02.179-.179.02-.02.178-.178.02-.02.179-.179.02-.02.178-.178.02-.02.179-.179.02-.02.178-.178.02-.02.189-.169.02-.02.188-.168.02-.02.189-.179.02-.02.188-.178.02-.01.188-.169.02-.01.189-.169.02-.02.188-.168.02-.02.189-.169.02-.02.188-.168.02-.01.198-.169.02-.02.199-.169.02-.02.198-.168.02-.02.198-.159.02-.02.199-.158.02-.02.188-.159.02-.02.199-.159.02-.02.198-.158.02-.01.198-.16.02-.019.199-.159.02-.02.198-.158.02-.02.208-.159.02-.02.198-.159.02-.02.209-.158.02-.02.208-.159.02-.02.198-.159.02-.01.209-.158.02-.02.198-.159.02-.02.208-.149.02-.02.209-.158.02-.02.208-.149.02-.01.208-.149.03-.02.208-.149.02-.01.209-.148.02-.02.208-.159.02-.01.218-.149.02-.02.208-.148.03-.01.208-.15.02-.01.209-.148.02-.01.218-.149.02-.02.208-.149.02-.01.218-.138.02-.01.209-.15.03-.02.218-.138.02-.02.218-.149.02-.02.218-.139.03-.01.218-.138.02-.02.218-.14.02-.01.219-.138.02-.01.218-.139.02-.01.218-.139.03-.01.218-.129h.01l99.753-61.533.01-.01.209-.129.02-.01.218-.139.03-.02.218-.129.03-.02.218-.129.03-.02.218-.129.03-.01.228-.128.02-.02.219-.13.03-.01.218-.128.02-.01.228-.12.02-.02.228-.118.02-.02.218-.12.03-.01.228-.118.02-.02.218-.12.03-.019.218-.12.03-.019.219-.119.02-.02.228-.119.02-.01.218-.119.03-.01.218-.119.03-.01.228-.12.03-.009.228-.12.02-.009.228-.11.03-.01.228-.108.03-.01.218-.11.03-.01.228-.108.02-.01.229-.11.03-.01.228-.109.03-.02.228-.109.03-.01.228-.109.03-.01.228-.099.03-.01.228-.1.02-.019.228-.1.02-.01.228-.098.03-.02.228-.1.03-.01.228-.099.03-.01.228-.099.03-.01.228-.099.03-.01.228-.1.03-.01.228-.088.03-.01.228-.1.03-.01.238-.099.03-.01.238-.099.03-.02.228-.09.02-.009.238-.09.03-.01.228-.089.02-.01.238-.089.03-.01.238-.08.03-.01.238-.088.03-.01.238-.09.03-.01.238-.079.03-.01.238-.08.03-.01.228-.079.03-.01.238-.079.03-.01.228-.08.03-.01.238-.079.02-.01.238-.079.03-.01.238-.08.03-.01.238-.079.03-.01.238-.069.02-.01.238-.07.03-.01.238-.069h.03l.238-.07.03-.01.238-.069.02-.01.238-.069.02-.01.238-.07.03-.01.238-.069.03-.01.238-.07.03-.01.238-.059.03-.01.238-.06.02-.01.238-.069.024-.01.248-.059h.02l.238-.07h.03l.245-.06.03-.009.248-.06.03-.01.238-.059h.03l.248-.06h.03l.238-.06.03-.009.238-.05.03-.01.238-.06.03-.009.238-.05h.03l.238-.05.03-.01.238-.049h.02l.238-.05.03-.01.248-.049h.02l.248-.05.02-.01.247-.05.03-.01.248-.049.03-.01.248-.04h.03l.238-.04.03-.009.248-.05.03-.01.248-.04h.03l.238-.039.03-.01.248-.04.03-.01.238-.04h.02l.238-.039h.03l.248-.04.03-.01.248-.04h.03l.248-.039h.03l.247-.04h.03l.248-.03h.03l.238-.03h.03l.248-.029.03-.01.248-.03.02-.01.248-.02h.03l.238-.03h.03l.238-.029h.03l.248-.03h.03l.248-.03h.03l.238-.02h.03l.248-.03.03-.009.248-.02.03-.01.247-.02h.03l.244-.02h.03l.248-.02h.03l.248-.01.03-.01.248-.02.02-.009.248-.01h.03l.248-.02h.02l.248-.01h.03l.248-.01h.03l.248-.01h.03l.248-.01.03-.01.247-.01h.03l.248-.01h.03l.248-.01h.03l.248-.01h.03l.248-.009h.02l.248-.01h.308l.248-.01h.575zm-.228 26.797h-.163l-.163.002h-.162l-.168.004-.169.003-.169.005-.168.01-.17.01-.168.01-.159.01-.168.01-.16.01-.158.01-.159.01-.169.01-.158.01-.169.02-.169.02-.159.02-.168.02-.169.019-.169.02-.159.02-.168.02-.159.02-.159.02-.169.019-.158.02-.16.02-.158.02-.159.02-.168.02-.16.03-.158.019-.169.03-.159.03-.158.03-.16.029-.158.03-.159.03-.159.03-.158.02-.17.029-.158.03-.169.03-.158.03-.16.029-.158.03-.159.04-.159.04-.158.039-.16.03-.158.03-.159.04-.159.039-.158.04-.16.04-.158.039-.159.04-.159.04-.158.04-.16.039-.158.04-.159.05-.158.039-.16.05-.148.049-.159.05-.159.05-.159.049-.158.05-.16.05-.148.049-.159.05-.159.059-.158.05-.16.05-.158.059-.159.05-.159.049-.148.05-.16.06-.158.059-.159.06-.149.059-.158.06-.15.059-.148.06-.159.069-.159.06-.159.059-.158.06-.15.069-.148.06-.159.069-.149.07-.149.069-.149.07-.158.069-.15.07-.158.069-.149.07-.149.069-.149.07-.158.069-.15.07-.148.069-.149.08-.149.079-.149.069-.149.08-.149.069-.148.08-.15.079-.148.08-.149.078-.149.08-.149.09-.139.079-.149.079-.139.08-.148.089-.15.089-.148.09-.14.079-.148.09-.139.088-.149.09-.149.089-.158.1-99.645 61.413-.168.11-.16.099-.148.1-.149.098-.149.1-.149.099-.149.1-.148.098-.15.1-.148.099-.149.1-.149.098-.149.11-.139.099-.139.099-.148.1-.14.099-.138.099-.14.099-.138.1-.14.098-.138.1-.14.109-.138.1-.139.108-.139.11-.139.109-.139.109-.139.109-.139.11-.129.108-.139.11-.139.109-.129.109-.139.11-.139.108-.129.11-.139.109-.129.109-.129.109-.129.119-.129.12-.129.108-.129.11-.129.119-.129.119-.129.119-.129.119-.129.119-.129.119-.129.12-.129.118-.129.12-.129.118-.129.12-.119.119-.129.119-.12.129-.128.119-.12.129-.118.119-.12.129-.119.12-.119.128-.119.13-.129.128-.119.12-.119.128-.119.13-.12.128-.108.13-.12.128-.118.13-.12.128-.119.14-.119.128-.109.13-.11.128-.118.14-.11.128-.118.13-.11.138-.109.13-.109.138-.11.14-.108.138-.11.14-.109.138-.109.139-.1.139-.108.139-.11.139-.109.139-.109.139-.099.139-.1.139-.099.139-.099.148-.099.14-.1.138-.099.15-.099.138-.099.14-.1.138-.099.139-.089.149-.1.149-.098.139-.1.149-.089.148-.09.14-.089.148-.089.15-.09.148-.089.149-.099.149-.099.149-.09.148-.089.15-.089.148-.09.15-.089.148-.089.149-.09.149-.089.149-.089.148-.09.15-.089.158-.089.149-.09.149-.089.159-.079.149-.08.158-.079.16-.08.158-.079.149-.079.149-.08.158-.079.15-.08.158-.069.149-.079.159-.08.159-.079.158-.08.16-.079.158-.069.159-.07.159-.069.158-.07.16-.069.158-.07.159-.069.159-.07.158-.069.16-.06.158-.069.159-.07.168-.069.16-.07.158-.069.159-.06.159-.069.168-.07.16-.059.158-.06.169-.059.158-.06.17-.059.158-.06.169-.06.168-.059.17-.05.168-.059.159-.06.168-.049.17-.05.158-.05.169-.059.168-.05.16-.049.158-.05.169-.06.168-.049.17-.05.158-.049.169-.05.168-.05.169-.049.169-.05.168-.04.17-.039.168-.05.169-.04.168-.049.17-.04.168-.04.168-.039.18-.04.168-.04.169-.04.168-.039.169-.04.169-.04.168-.029.17-.04.168-.03.169-.03.178-.029.179-.03.179-.03.178-.03.169-.03.169-.029.178-.03.179-.03.169-.03.168-.029.17-.03.178-.02.178-.02.179-.02.169-.029.178-.03.17-.02.178-.02.178-.02.179-.02.179-.02.178-.019.179-.02.169-.02.178-.02.179-.01.179-.02.178-.02.179-.009.179-.01.178-.01.179-.01.179-.01.178-.01.179-.01.178-.01.18-.01.178-.01.178v.179l-.01.179-.01.178v.179l-.01.179v125.845l.01.179v.536l.01.168.01.179.01.179.01.178.01.179.01.179.01.178.01.179.01.179.02.178.01.179.01.178.01.18.02.168.02.178.02.17.01.178.02.169.019.168.02.169.02.169.02.178.02.17.02.168.019.178.02.18.02.168.02.178.03.17.03.168.029.169.03.168.03.179.03.169.029.168.03.17.03.168.04.169.029.168.03.169.03.169.04.168.039.17.03.168.04.169.04.168.039.17.04.168.04.169.039.168.04.169.04.159.049.159.04.168.04.169.04.169.049.168.04.16.04.168.039.159.05.168.04.16.049.168.05.169.049.158.05.17.05.168.049.159.05.168.059.16.06.158.06.159.059.159.05.158.059.17.06.158.059.159.06.159.059.158.06.16.06.158.059.159.06.159.059.158.07.16.069.158.06.159.059.158.06.16.059.158.06.159.069.159.07.158.069.16.07.158.069.159.07.159.069.158.07.16.069.158.07.159.069.159.07.148.079.16.079.148.08.159.079.149.08.149.079.149.079.148.08.15.079.148.089.15.08.148.079.149.08.149.089.149.089.148.08.15.079.148.08.149.088.149.08.149.09.139.088.149.09.139.09.148.088.15.09.138.089.14.09.138.089.14.089.148.09.149.099.139.089.139.09.149.089.139.089.138.1.14.098.138.1.15.099.138.1.14.098.138.1.139.099.139.1.139.098.139.11.139.109.139.099.139.1.139.098.139.1.139.109.129.109.129.11.139.108.129.11.138.109.13.109.129.11.129.108.129.11.129.109.129.109.129.109.129.11.129.108.129.11.129.119.129.119.129.109.129.119.119.119.129.12.119.118.129.11.129.118.129.12.12.119.118.119.12.119.118.119.13.119.119.12.119.118.119.12.119.118.119.13.119.119.12.119.118.129.12.119.118.119.12.129.119.129.109.129.109.129.12.129.118.129.11.129.108.129.12.129.119.13.109.138.109.139.11.139.108.129.11.129.109.139.109.129.11.139.098.129.11.139.109.139.109.139.109.129.1.139.108.139.1.139.109.139.109.138.1.14.099.148.099.14.099.138.1.14.098.138.1.139.099.139.1.149.098.149.09.149.1.139.098.148.1.15.099.138.09.15.088.148.09.149.09.149.088.149.09.158.09.15.088.148.09.169.099 103.892 60.74.129.079.109.06.12.059.118.06.12.059.108.07.12.059.119.06.119.059.119.07.119.059.119.06.12.06.118.059.12.06.118.059.12.06.119.059.109.06.119.059.119.06.12.05.118.059.12.05.118.049.12.05.119.059.119.06.119.05.119.059.119.05.12.049.118.05.12.05.118.049.12.05.119.05.119.049.119.05.119.04.129.049.119.05.119.049.12.05.118.05.12.039.118.05.12.04.119.039.129.04.119.04.109.039.258.08.248.079.248.07.248.069.248.07.249.069.248.07.248.069.248.07.248.059.248.06.248.059.248.05.248.059.249.05.248.05.248.049.248.04.248.05.248.039.248.04.258.04.248.039.259.03.258.03.258.03.258.02.248.019.258.02.248.02.258.02.258.02.248.02.248.01.248.009.258.01h1.27l.259-.01h.258l.258-.01.258-.01.258-.02.258-.02.258-.01.258-.02.258-.02.258-.019.248-.02.258-.03.258-.03.249-.03.258-.029.248-.04.258-.04.248-.039.258-.04.248-.04.248-.049.248-.04.258-.05.248-.049.249-.06.248-.05.248-.059.248-.06.248-.059.248-.06.248-.069.248-.07.248-.069.249-.07.258-.079.119-.04.119-.039.119-.04.129-.04.119-.04.13-.039.118-.04.12-.04.128-.039.12-.04.118-.04.13-.049.119-.04.129-.04.119-.049.119-.04.119-.04.119-.04.129-.049.12-.04.118-.049.12-.05.118-.05.12-.049.119-.05.119-.05.119-.049.119-.05.119-.049.12-.05.118-.06.12-.059.118-.05.12-.059.119-.06.119-.05.119-.059.119-.06.119-.059.11-.06.118-.059.12-.06.118-.059.12-.06.119-.059.119-.06.119-.06.119-.059.11-.06.118-.059.12-.06.128-.069 115.097-64.143.14-.07.128-.07.12-.069.118-.07.12-.069.119-.079.129-.07.119-.069.119-.07.119-.069.119-.08.12-.079.118-.07.12-.069.118-.07.12-.079.119-.079.119-.07.119-.079.119-.07.11-.079.108-.08.11-.078.109-.08.109-.08.119-.079.109-.079.12-.08.108-.079.11-.08.109-.079.109-.079.109-.08.12-.079.108-.09.11-.079.109-.089.109-.08.109-.089.11-.089.108-.09.11-.079.109-.079.109-.09.1-.089.108-.089.11-.09.099-.079.109-.089.109-.1.1-.089.108-.089.1-.09.099-.089.1-.099.108-.09.1-.098.099-.09.1-.099.098-.1.1-.089.099-.099.1-.09.098-.098.1-.1.099-.099.099-.1.09-.098.099-.1.089-.099.1-.1.098-.098.1-.1.089-.099.09-.1.089-.098.089-.1.1-.099.089-.1.089-.098.09-.1.089-.099.089-.099.09-.1.088-.099.09-.109.09-.109.088-.11.09-.098.09-.1.088-.099.09-.109.089-.1.09-.108.079-.1.08-.109.079-.109.079-.1.09-.108.079-.11.08-.109.078-.109.08-.11.08-.108.079-.11.08-.109.078-.109.08-.109.08-.11.079-.108.08-.11.069-.109.069-.119.08-.119.079-.109.07-.11.069-.108.08-.12.079-.109.069-.109.07-.119.069-.119.07-.12.069-.118.07-.11.069-.118.07-.12.069-.109.07-.119.069-.119.07-.119.059-.12.06-.118.069-.12.07-.118.059-.12.07-.119.069-.119.06-.119.059-.119.06-.129.059-.119.07-.12.069-.118.06-.12.059-.118.06-.12.06-.128.059-.12.06-.119.059-.129.06-.119.059-.119.06-.129.059-.129.06-.129.059-.12.05-.118.05-.13.049-.128.05-.13.05-.118.049-.13.05-.128.049-.13.05-.118.05-.13.049-.129.05-.129.05-.129.049-.129.04-.129.04-.129.039-.129.04-.129.05-.129.049-.129.05-.129.049-.129.04-.129.05-.129.04-.129.039-.129.05-.129.04-.129.039-.129.04-.129.04-.129.029-.129.04-.129.04-.129.04-.129.039-.13.03-.128.03-.139.039-.129.03-.13.03-.138.04-.129.029-.13.03-.128.03-.13.03-.138.03-.13.029-.128.02-.139.03-.139.03-.129.02-.139.029-.129.03-.139.03-.139.03-.129.029-.139.02-.139.03-.139.02-.129.03-.129.02-.139.019-.139.02-.139.02-.139.02-.138.02-.14.02-.138.01-.14.019-.128.01-.14.02-.138.02-.13.02-.138.01-.14.01-.138.01-.14.01-.138.019-.139.01-.139.01-.139.01-.139.01-.139.01-.139.01-.139.01-.139.01-.139.01-.138.01-.14.01-.138v-.278l.01-.14V188.183l-.01-.122-.01-.13v-.128l-.01-.13v-.128l-.01-.13v-.128l-.01-.13-.01-.118-.01-.13-.01-.128-.01-.13-.01-.119-.01-.129-.01-.119-.01-.129-.02-.129-.01-.119-.01-.119-.02-.119-.01-.12-.02-.128-.01-.12-.019-.118-.02-.13-.01-.128-.01-.12-.02-.109-.04-.26-.029-.254-.04-.258-.04-.248-.05-.248-.049-.248-.04-.248-.049-.248-.06-.249-.06-.248-.059-.248-.06-.248-.059-.248-.06-.248-.059-.248-.07-.248-.069-.248-.07-.249-.079-.248-.07-.238-.079-.238-.079-.238-.08-.238-.079-.239-.09-.238-.088-.238-.09-.228-.089-.239-.09-.238-.089-.238-.099-.228-.09-.238-.098-.229-.1-.228-.099-.228-.11-.228-.098-.229-.11-.228-.109-.228-.109-.219-.119-.228-.11-.228-.118-.228-.12-.219-.118-.218-.12-.218-.119-.219-.119-.218-.129-.218-.129-.219-.129-.218-.139-.218-.129-.209-.129-.208-.139-.209-.139-.208-.139-.209-.139-.208-.139-.208-.138-.209-.15-.198-.148-.199-.15-.198-.148-.199-.149-.198-.159-.199-.158-.198-.16-.199-.158-.198-.159-.189-.169-.188-.158-.189-.17-.189-.168-.188-.168-.189-.17-.188-.168-.189-.179-.178-.178-.18-.179-.178-.179-.178-.178-.18-.189-.178-.188-.178-.189-.17-.188-.168-.189-.169-.189-.168-.188-.169-.199-.169-.198-.158-.199-.16-.188-.158-.209-.169-.089-.07-.1-.079-.098-.08-.1-.078-.099-.08-.1-.07-.098-.079-.1-.08-.109-.079-.109-.079-.1-.08-.099-.079-.099-.08-.099-.069-.1-.079-.108-.08-.1-.069-.099-.07-.11-.079-.108-.07-.11-.069-.099-.07-.109-.069-.109-.07-.11-.069-.108-.069-.11-.07-.109-.069-.109-.07-.11-.069-.108-.07-.11-.059-.109-.06-.129-.069-112.307-65.89-.159-.096-.143-.08-.15-.09-.148-.089-.146-.082-.149-.08-.144-.079-.149-.08-.149-.078-.148-.08-.146-.08-.15-.079-.148-.08-.149-.078-.149-.08-.149-.08-.149-.079-.151-.07-.15-.079-.148-.069-.15-.07-.148-.079-.154-.07-.149-.069-.149-.07-.154-.069-.15-.07-.148-.059-.154-.07-.15-.069-.15-.07-.153-.059-.15-.06-.158-.059-.153-.07-.157-.059-.159-.07-.158-.059-.154-.06-.154-.059-.156-.06-.159-.06-.158-.059-.15-.06-.148-.049-.15-.05-.158-.059-.159-.05-.149-.05-.158-.049-.16-.05-.148-.05-.159-.049-.159-.05-.158-.049-.15-.05-.158-.05-.159-.049-.159-.05-.158-.04-.16-.049-.158-.04-.159-.05-.159-.039-.158-.04-.16-.04-.158-.049-.159-.04-.159-.04-.158-.029-.16-.04-.158-.04-.159-.04-.159-.029-.158-.04-.16-.03-.158-.03-.159-.039-.159-.03-.158-.03-.16-.03-.158-.029-.159-.03-.159-.03-.168-.03-.159-.02-.159-.019-.159-.02-.158-.02-.16-.03-.158-.03-.159-.019-.169-.03-.158-.02-.16-.03-.158-.02-.159-.02-.159-.019-.158-.02-.16-.02-.168-.02-.159-.01-.158-.02-.16-.02-.158-.01-.159-.009-.159-.01-.158-.01-.16-.01-.168-.01-.169-.01-.158-.01-.16-.01h-.158l-.159-.01-.159-.01h-.168l-.16-.01-.158-.01-.149-.01-.159-.009h-.327l-.159-.01h-.317z"/><path fill="#fff" fill-rule="nonzero" d="M177.412 358.01V152.35h43.027v74.911h71.375V152.35h43.153v205.66h-43.153v-89.924h-71.375v89.924z"/></svg>